
<svg xmlns="http://www.w3.org/2000/svg" version="1.1" xmlns:xlink="http://www.w3.org/1999/xlink" preserveAspectRatio="none" x="0px" y="0px" width="300px" height="250px" viewBox="0 0 300 250">
<defs>
<filter id="Filter_1" x="-20%" y="-20%" width="140%" height="140%" color-interpolation-filters="sRGB">
<feColorMatrix in="SourceGraphic" type="matrix" values="1 0 0 0 0 0 1 0 0 0 0 0 1 0 0 0 0 0 0.66 0" result="result1"/>
</filter>
</defs>

<g id="Layer_1">
<g>
<g>
<g>
<path fill="#231B42" stroke="none" d="
M -4.05 -3.7
L -4.05 252.45 303.3 252.45 303.3 -3.7 -4.05 -3.7 Z"/>
</g>
</g>
</g>

<g id="Layer_1" transform="matrix( 0.35302734375, 0, 0, 0.35302734375, 142.95,-0.75) ">
<g>
<g filter="url(#Filter_1)">
<g>
<path fill="#E0E147" stroke="none" d="
M 0 207.45
L 37.35 207.45 21.5 0 0 207.45 Z"/>
</g>
</g>
</g>
</g>

<g transform="matrix( 0.352874755859375, 0, 0, 0.352874755859375, -0.75,-0.75) ">
<g>
<g>
<path fill="#FFF6D3" stroke="none" d="
M 417.05 135.45
L 415.75 133.85 415.4 136.8 417.05 139.25 417.05 135.45 Z"/>
</g>
</g>
</g>

<g transform="matrix( 0.352874755859375, 0, 0, 0.352874755859375, -0.75,-0.75) ">
<g>
<g>
<path fill="#FFF6D3" stroke="none" d="
M 429.3 123.3
L 428.45 123.2
Q 427.8 123.15 427.6 122.65
L 427.5 122.15
Q 427.5 121.5 426.55 121 425.95 120.7 425.5 121.1
L 425.15 121.55
Q 425.15 122.85 424.4 122.95
L 423.65 122.8 423.65 125.25 425.65 125.1 425.65 126.4 424.35 129.5
Q 423 130.9 422.95 131.9 422.95 132.4 423.2 132.6 421.55 138.1 419.35 137.2 417.5 135.2 417.5 135.25
L 417.2 132
Q 416.75 132.1 416.75 131.1
L 416.9 130.1
Q 416.7 130.2 416.15 130.1
L 415.65 130
Q 414.8 131.1 415.15 131.8 415.3 132.15 415.65 132.3
L 415.65 133.95 416.9 135.5 417.15 140.1
Q 422 135.7 429.6 137.5 432.1 138.05 434.25 139.15 435.84765625 139.9908203125 435.9 140.2
L 437.45 137.5
Q 437.25 136.95 437.15 134.9
L 437.15 132.9
Q 437.95 132.85 437.65 131.9 437.45 130.8 436.95 130.4
L 436.5 130.2
Q 435.8 130.15 436.3 131.15 436.55 131.65 436.9 132.15 436.85 134.85 435.95 135.45
L 435 135.5
Q 433.7 139.35 431.35 136.4 429.3 132.7 429.3 132.65 430.35 131.95 429.3 130.5 428.2 129.2 427.9 127.75
L 427.85 125.3 429.3 125.5 429.3 123.3 Z"/>
</g>
</g>
</g>

<g transform="matrix( 0.352874755859375, 0, 0, 0.352874755859375, -0.75,-0.75) ">
<g>
<g>
<path fill="#FFF6D3" stroke="none" d="
M 415.8 130.1
L 416.4 131.8
Q 416.3 133.15 417.05 134.5 417.45 135.2 417.85 135.65 418.45 137.3 420.2 137.45 421.1 137.5 421.85 137.25 421.75 136.85 426.1 136.7 430.65 136.6 432.2 137.6 433.75 138.3 434.65 137.6 435.1 137.25 435.25 136.75 435.15 136.15 435.35 135.7
L 435.6 135.35
Q 436.9 134.9 436.85 132.5 437.8 130.85 436.7 130.4 436 130.15 436 130.8
L 436.2 131.9
Q 436.25 132.5 435.4 133.05 434.4 132.7 434.05 134 433.85 134.65 433.85 135.35
L 431.6 137
Q 426.85 135.9 421.7 136.75 421.2 136.7 420.35 135.6
L 419.55 134.55
Q 419.6 133.3 419.15 132.75
L 418.75 132.4
Q 418.3 132.45 417.55 132
L 416.9 131.6
Q 417.1 131.2 417.1 130.3 417 129.4 416.4 129.65
L 415.8 130.1 Z"/>
</g>
</g>
</g>

<g transform="matrix( 0.352874755859375, 0, 0, 0.352874755859375, -0.75,-0.75) ">
<g>
<g>
<path fill="#FFF6D3" stroke="none" d="
M 423.85 132.15
Q 424 132.35 424.2 132.45
L 426.35 135.55
Q 426.65 136.05 426.95 135.6
L 428.95 132.65
Q 429.35 132.1 429.1 131.95
L 427.05 128.7
Q 426.65 127.75 426.2 128.1
L 424 131.25
Q 423.6 131.75 423.85 132.15 Z"/>
</g>
</g>
</g>

<g transform="matrix( 0.352874755859375, 0, 0, 0.352874755859375, -0.75,-0.75) ">
<g>
<g>
<path fill="#FFF6D3" stroke="none" d="
M 436.95 135.3
L 436 136.35 436.15 139.2 437.2 137.5 436.95 135.3 Z"/>
</g>
</g>
</g>

<g transform="matrix( 0.352874755859375, 0, 0, 0.352874755859375, -0.75,-0.75) ">
<g>
<g>
<path fill="#FFF6D3" stroke="none" d="
M 415.75 134.25
L 415.55 136.7 417.1 138.4 416.75 135.85 415.75 134.25 Z"/>
</g>
</g>
</g>

<g transform="matrix( 0.352874755859375, 0, 0, 0.352874755859375, -0.75,-0.75) ">
<g>
<g>
<path fill="#FFF6D3" stroke="none" d="
M 416.8 140.2
Q 416.3 140.6 416.9 140.75 417.2 140.85 417.6 140.85
L 417.6 142.75
Q 417.1 143.55 417.35 144 417.45 144.25 417.65 144.3 417.4 148.05 418.85 149.95 419.55 150.9 420.35 151.1 419.25 151.7 419.25 152.8 419.25 153.35 419.5 153.75 420.45 155.05 419.6 156.1
L 418.55 156.9
Q 416.75 158.75 417.75 160.15 418.2 160.85 419.05 161.2 422.5 165.75 420.65 174.6 419.75 178.95 418.2 182.15 417.45 182.1 417.2 182.9 417.1 183.25 417.1 183.65 417 187.05 415.35 188.5
L 413.85 189.25
Q 412.6 190.05 413.05 191.4 413.3 192.05 413.75 192.6 414.2 193.85 414.15 194.25 414.15 194.6 413.7 194.65 413.35 194.65 413.1 195.15
L 412.9 195.65
Q 413.25 202.1 419.8 205.75 422.15 207.05 424.3 207.4 426.4 207.75 426.5 207.05
L 426.5 137
Q 423.9 136.2 420.05 138.1 416.2 140 416.8 140.2 Z"/>
</g>
</g>
</g>

<g transform="matrix( 0.352874755859375, 0, 0, 0.352874755859375, -0.75,-0.75) ">
<g>
<g>
<path fill="#FFF6D3" stroke="none" d="
M 434.4 140.85
Q 436 140.85 435.2 140.2 435.8 140 431.95 138.1 428.1 136.2 425.5 137
L 425.5 207.05
Q 425.6 207.75 427.65 207.4 429.85 207.05 432.2 205.75 438.75 202.1 439.05 195.65 438.85 194.65 438.3 194.65 437.85 194.6 437.85 194.25 437.8 193.85 438.25 192.6 438.7 192.05 438.95 191.4 439.35 190.05 438.15 189.25 437.45 189.25 436.65 188.5 435.05 187.05 434.9 183.65 434.95 182.1 433.8 182.15 432.2 178.95 431.3 174.6 429.45 165.75 432.9 161.2 432.95 161.2 434.25 160.15 435.2 158.8 433.4 156.9 432.85 156.65 432.4 156.1 431.55 155.05 432.5 153.75 432.75 153.35 432.75 152.8 432.8 151.7 431.65 151.1
L 433.15 149.95
Q 434.55 148.05 434.3 144.3 434.55 144.25 434.65 144 434.9 143.55 434.4 142.75
L 434.4 140.85 Z"/>
</g>
</g>
</g>

<g id="Layer_1" transform="matrix( 0.35302734375, 0, 0, 0.35302734375, -11.25,11.2) ">
<g transform="matrix( 0.0476531982421875, -0.99884033203125, 0.99884033203125, 0.0476531982421875, 5.6,477.55) ">
<clipPath id="Mask_Mask_1">
<rect x="-2" y="-2" width="19.9" height="64" fill="#FFFFFF" stroke="none"/>
</clipPath>

<text clip-path="url(#Mask_Mask_1)" writing-mode="lr"><tspan x="0" y="45" baseline-shift="0%" font-family="BlowBrush" font-size="60" fill="#FF96C7" xml:space="preserve"> </tspan></text>
</g>

<g transform="matrix( 0.0819549560546875, -0.9966278076171875, 0.9966278076171875, 0.0819549560546875, 6.45,460.3) ">
<clipPath id="Mask_Mask_2">
<rect x="-2" y="-2" width="19.9" height="64" fill="#FFFFFF" stroke="none"/>
</clipPath>

<text clip-path="url(#Mask_Mask_2)" writing-mode="lr"><tspan x="0" y="45" baseline-shift="0%" font-family="BlowBrush" font-size="60" fill="#FF96C7" xml:space="preserve"> </tspan></text>
</g>

<g transform="matrix( 0.116180419921875, -0.99322509765625, 0.99322509765625, 0.116180419921875, 7.9,443.1) ">
<clipPath id="Mask_Mask_3">
<rect x="-2" y="-2" width="19.9" height="64" fill="#FFFFFF" stroke="none"/>
</clipPath>

<text clip-path="url(#Mask_Mask_3)" writing-mode="lr"><tspan x="0" y="45" baseline-shift="0%" font-family="BlowBrush" font-size="60" fill="#FF96C7" xml:space="preserve"> </tspan></text>
</g>

<g transform="matrix( 0.1502685546875, -0.9886322021484375, 0.9886322021484375, 0.1502685546875, 9.95,425.95) ">
<clipPath id="Mask_Mask_4">
<rect x="-2" y="-2" width="19.9" height="64" fill="#FFFFFF" stroke="none"/>
</clipPath>

<text clip-path="url(#Mask_Mask_4)" writing-mode="lr"><tspan x="0" y="45" baseline-shift="0%" font-family="BlowBrush" font-size="60" fill="#FF96C7" xml:space="preserve"> </tspan></text>
</g>

<g transform="matrix( 0.18414306640625, -0.9828948974609375, 0.9828948974609375, 0.18414306640625, 12.55,408.9) ">
<clipPath id="Mask_Mask_5">
<rect x="-2" y="-2" width="19.9" height="64" fill="#FFFFFF" stroke="none"/>
</clipPath>

<text clip-path="url(#Mask_Mask_5)" writing-mode="lr"><tspan x="0" y="45" baseline-shift="0%" font-family="BlowBrush" font-size="60" fill="#FF96C7" xml:space="preserve"> </tspan></text>
</g>

<g transform="matrix( 0.2177581787109375, -0.9759979248046875, 0.9759979248046875, 0.2177581787109375, 15.75,391.9) ">
<clipPath id="Mask_Mask_6">
<rect x="-2" y="-2" width="19.9" height="64" fill="#FFFFFF" stroke="none"/>
</clipPath>

<text clip-path="url(#Mask_Mask_6)" writing-mode="lr"><tspan x="0" y="45" baseline-shift="0%" font-family="BlowBrush" font-size="60" fill="#FF96C7" xml:space="preserve"> </tspan></text>
</g>

<g transform="matrix( 0.25103759765625, -0.96795654296875, 0.96795654296875, 0.25103759765625, 19.55,375.1) ">
<clipPath id="Mask_Mask_7">
<rect x="-2" y="-2" width="19.9" height="64" fill="#FFFFFF" stroke="none"/>
</clipPath>

<text clip-path="url(#Mask_Mask_7)" writing-mode="lr"><tspan x="0" y="45" baseline-shift="0%" font-family="BlowBrush" font-size="60" fill="#FF96C7" xml:space="preserve"> </tspan></text>
</g>

<g transform="matrix( 0.283935546875, -0.958831787109375, 0.958831787109375, 0.283935546875, 23.9,358.4) ">
<clipPath id="Mask_Mask_8">
<rect x="-2" y="-2" width="19.9" height="64" fill="#FFFFFF" stroke="none"/>
</clipPath>

<text clip-path="url(#Mask_Mask_8)" writing-mode="lr"><tspan x="0" y="45" baseline-shift="0%" font-family="BlowBrush" font-size="60" fill="#E5368B" xml:space="preserve"> </tspan></text>
</g>

<g transform="matrix( 0.316436767578125, -0.9486083984375, 0.9486083984375, 0.316436767578125, 28.85,341.85) ">
<clipPath id="Mask_Mask_9">
<rect x="-2" y="-2" width="19.9" height="64" fill="#FFFFFF" stroke="none"/>
</clipPath>

<text clip-path="url(#Mask_Mask_9)" writing-mode="lr"><tspan x="0" y="45" baseline-shift="0%" font-family="BlowBrush" font-size="60" fill="#E5368B" xml:space="preserve"> </tspan></text>
</g>

<g transform="matrix( 0.37322998046875, -0.927734375, 0.927734375, 0.37322998046875, 34.4,324.25) ">
<clipPath id="Mask_Mask_10">
<rect x="-2" y="-2" width="44.55" height="64" fill="#FFFFFF" stroke="none"/>
</clipPath>

<text clip-path="url(#Mask_Mask_10)" writing-mode="lr"><tspan x="0" y="45" baseline-shift="0%" font-family="BlowBrush" font-size="60" fill="#E5368B" xml:space="preserve">M</tspan></text>
</g>

<g transform="matrix( 0.44049072265625, -0.897735595703125, 0.897735595703125, 0.44049072265625, 51.05,283.85) ">
<clipPath id="Mask_Mask_11">
<rect x="-2" y="-2" width="32.55" height="64" fill="#FFFFFF" stroke="none"/>
</clipPath>

<text clip-path="url(#Mask_Mask_11)" writing-mode="lr"><tspan x="0" y="45" baseline-shift="0%" font-family="BlowBrush" font-size="60" fill="#E5368B" xml:space="preserve">a</tspan></text>
</g>

<g transform="matrix( 0.49652099609375, -0.86798095703125, 0.86798095703125, 0.49652099609375, 64.85,255.8) ">
<clipPath id="Mask_Mask_12">
<rect x="-2" y="-2" width="35.45" height="64" fill="#FFFFFF" stroke="none"/>
</clipPath>

<text clip-path="url(#Mask_Mask_12)" writing-mode="lr"><tspan x="0" y="45" baseline-shift="0%" font-family="BlowBrush" font-size="60" fill="#E5368B" xml:space="preserve">s</tspan></text>
</g>

<g transform="matrix( 0.5484619140625, -0.8361663818359375, 0.8361663818359375, 0.5484619140625, 79.75,229.6) ">
<clipPath id="Mask_Mask_13">
<rect x="-2" y="-2" width="30.5" height="64" fill="#FFFFFF" stroke="none"/>
</clipPath>

<text clip-path="url(#Mask_Mask_13)" writing-mode="lr"><tspan x="0" y="45" baseline-shift="0%" font-family="BlowBrush" font-size="60" fill="#E5368B" xml:space="preserve">t</tspan></text>
</g>

<g transform="matrix( 0.5973358154296875, -0.8019866943359375, 0.8019866943359375, 0.5973358154296875, 97.05,203.1) ">
<clipPath id="Mask_Mask_14">
<rect x="-2" y="-2" width="34.55" height="64" fill="#FFFFFF" stroke="none"/>
</clipPath>

<text clip-path="url(#Mask_Mask_14)" writing-mode="lr"><tspan x="0" y="45" baseline-shift="0%" font-family="BlowBrush" font-size="60" fill="#E5368B" xml:space="preserve">e</tspan></text>
</g>

<g transform="matrix( 0.649169921875, -0.7606201171875, 0.7606201171875, 0.649169921875, 116.3,177.15) ">
<clipPath id="Mask_Mask_15">
<rect x="-2" y="-2" width="37.2" height="64" fill="#FFFFFF" stroke="none"/>
</clipPath>

<text clip-path="url(#Mask_Mask_15)" writing-mode="lr"><tspan x="0" y="45" baseline-shift="0%" font-family="BlowBrush" font-size="60" fill="#E5368B" xml:space="preserve">r</tspan></text>
</g>

<g transform="matrix( 0.68701171875, -0.72662353515625, 0.72662353515625, 0.68701171875, 140.9,148.7) ">
<clipPath id="Mask_Mask_16">
<rect x="-2" y="-2" width="19.9" height="64" fill="#FFFFFF" stroke="none"/>
</clipPath>

<text clip-path="url(#Mask_Mask_16)" writing-mode="lr"><tspan x="0" y="45" baseline-shift="0%" font-family="BlowBrush" font-size="60" fill="#E5368B" xml:space="preserve"> </tspan></text>
</g>

<g transform="matrix( 0.722137451171875, -0.69171142578125, 0.69171142578125, 0.722137451171875, 153.15,135.6) ">
<clipPath id="Mask_Mask_17">
<rect x="-2" y="-2" width="36.05" height="64" fill="#FFFFFF" stroke="none"/>
</clipPath>

<text clip-path="url(#Mask_Mask_17)" writing-mode="lr"><tspan x="0" y="45" baseline-shift="0%" font-family="BlowBrush" font-size="60" fill="#E5368B" xml:space="preserve">y</tspan></text>
</g>

<g transform="matrix( 0.7611083984375, -0.64862060546875, 0.64862060546875, 0.7611083984375, 178.1,111.9) ">
<clipPath id="Mask_Mask_18">
<rect x="-2" y="-2" width="28.25" height="64" fill="#FFFFFF" stroke="none"/>
</clipPath>

<text clip-path="url(#Mask_Mask_18)" writing-mode="lr"><tspan x="0" y="45" baseline-shift="0%" font-family="BlowBrush" font-size="60" fill="#E5368B" xml:space="preserve">o</tspan></text>
</g>

<g transform="matrix( 0.792877197265625, -0.609375, 0.609375, 0.792877197265625, 198.25,94.8) ">
<clipPath id="Mask_Mask_19">
<rect x="-2" y="-2" width="28.8" height="64" fill="#FFFFFF" stroke="none"/>
</clipPath>

<text clip-path="url(#Mask_Mask_19)" writing-mode="lr"><tspan x="0" y="45" baseline-shift="0%" font-family="BlowBrush" font-size="60" fill="#E5368B" xml:space="preserve">u</tspan></text>
</g>

<g transform="matrix( 0.82781982421875, -0.56097412109375, 0.56097412109375, 0.82781982421875, 217.95,79.45) ">
<clipPath id="Mask_Mask_20">
<rect x="-2" y="-2" width="37.2" height="64" fill="#FFFFFF" stroke="none"/>
</clipPath>

<text clip-path="url(#Mask_Mask_20)" writing-mode="lr"><tspan x="0" y="45" baseline-shift="0%" font-family="BlowBrush" font-size="60" fill="#E5368B" xml:space="preserve">r</tspan></text>
</g>

<g transform="matrix( 0.85504150390625, -0.518524169921875, 0.518524169921875, 0.85504150390625, 249.2,58.6) ">
<clipPath id="Mask_Mask_21">
<rect x="-2" y="-2" width="19.9" height="64" fill="#FFFFFF" stroke="none"/>
</clipPath>

<text clip-path="url(#Mask_Mask_21)" writing-mode="lr"><tspan x="0" y="45" baseline-shift="0%" font-family="BlowBrush" font-size="60" fill="#E5368B" xml:space="preserve"> </tspan></text>
</g>

<g transform="matrix( 0.879150390625, -0.476531982421875, 0.476531982421875, 0.879150390625, 264.45,49.2) ">
<clipPath id="Mask_Mask_22">
<rect x="-2" y="-2" width="35.25" height="64" fill="#FFFFFF" stroke="none"/>
</clipPath>

<text clip-path="url(#Mask_Mask_22)" writing-mode="lr"><tspan x="0" y="45" baseline-shift="0%" font-family="BlowBrush" font-size="60" fill="#E5368B" xml:space="preserve">g</tspan></text>
</g>

<g transform="matrix( 0.9067230224609375, -0.42169189453125, 0.42169189453125, 0.9067230224609375, 294.25,33.15) ">
<clipPath id="Mask_Mask_23">
<rect x="-2" y="-2" width="32.55" height="64" fill="#FFFFFF" stroke="none"/>
</clipPath>

<text clip-path="url(#Mask_Mask_23)" writing-mode="lr"><tspan x="0" y="45" baseline-shift="0%" font-family="BlowBrush" font-size="60" fill="#E5368B" xml:space="preserve">a</tspan></text>
</g>

<g transform="matrix( 0.934112548828125, -0.35693359375, 0.35693359375, 0.934112548828125, 322.85,19.8) ">
<clipPath id="Mask_Mask_24">
<rect x="-2" y="-2" width="74" height="64" fill="#FFFFFF" stroke="none"/>
</clipPath>

<text clip-path="url(#Mask_Mask_24)" writing-mode="lr"><tspan x="0" y="45" baseline-shift="0%" font-family="BlowBrush" font-size="60" fill="#E5368B" xml:space="preserve">mE</tspan></text>
</g>
</g>

<g transform="matrix( 0.35302734375, 0, 0, 0.35302734375, -0.75,-0.75) ">
<g>
<g>
<path fill="#FFF6D3" stroke="none" d="
M 1.7 544.55
L 1.7 711.2 168.45 711.2 168.45 544.55 1.7 544.55 Z"/>
</g>
</g>
</g>

<g transform="matrix( 0.35302734375, 0, 0, 0.35302734375, -0.75,-0.75) ">
<g>
<g>
<path fill="#FFF6D3" stroke="none" d="
M 169.45 375.1
L 169.45 540.85 335.2 540.85 335.2 375.1 169.45 375.1 Z"/>
</g>
</g>
</g>

<g transform="matrix( 0.0000152587890625, 0.999969482421875, -0.999969482421875, 0.0000152587890625, 367.45,72.6) ">
<g>
<g>
<path fill="#FFF6D3" stroke="none" d="
M 117.6 190.2
L 117.6 249.85 178.1 249.85 178.1 190.2 117.6 190.2 Z"/>
</g>
</g>
</g>

<g transform="matrix( 0.352874755859375, 0, 0, 0.352874755859375, -0.75,-0.75) ">
<g>
<g>
<path fill="#E3E352" stroke="none" d="
M 39.25 672.1
Q 35.75 672.1 33.25 674.6 30.8 677.05 30.8 680.55 30.8 684.05 33.25 686.5 35.75 688.95 39.25 688.95 42.75 688.95 45.2 686.5 47.65 684.05 47.65 680.55 47.65 677.05 45.2 674.6 42.75 672.1 39.25 672.1 Z"/>
</g>
</g>
</g>

<g transform="matrix( 0.352874755859375, 0, 0, 0.352874755859375, -0.75,-0.75) ">
<g>
<g>
<path fill="#107CB1" stroke="none" d="
M 59.8 672.1
Q 56.3 672.1 53.85 674.6 51.4 677.05 51.4 680.55 51.4 684.05 53.85 686.5 56.3 688.95 59.8 688.95 63.3 688.95 65.8 686.5 68.25 684.05 68.25 680.55 68.25 677.05 65.8 674.6 63.3 672.1 59.8 672.1 Z"/>
</g>
</g>
</g>

<g transform="matrix( 0.352874755859375, 0, 0, 0.352874755859375, -0.75,-0.75) ">
<g>
<g>
<path fill="#E53746" stroke="none" d="
M 81.05 688.95
Q 84.55 688.95 87.05 686.5 89.5 684.05 89.5 680.55 89.5 677.05 87.05 674.6 84.55 672.1 81.05 672.1 77.55 672.1 75.1 674.6 72.65 677.05 72.65 680.55 72.65 684.05 75.1 686.5 77.55 688.95 81.05 688.95 Z"/>
</g>
</g>
</g>

<g transform="matrix( 0.352874755859375, 0, 0, 0.352874755859375, -0.75,-0.75) ">
<g>
<g>
<path fill="#0F0E13" stroke="none" d="
M 101.65 672.1
Q 98.15 672.1 95.7 674.6 93.25 677.05 93.25 680.55 93.25 684.05 95.7 686.5 98.15 688.95 101.65 688.95 105.15 688.95 107.65 686.5 110.1 684.05 110.1 680.55 110.1 677.05 107.65 674.6 105.15 672.1 101.65 672.1 Z"/>
</g>
</g>
</g>

<g transform="matrix( 0.352874755859375, 0, 0, 0.352874755859375, -0.75,-0.75) ">
<g>
<g>
<path fill="#E5368B" stroke="none" d="
M 115.8 674.4
Q 113.35 676.85 113.35 680.35 113.35 683.85 115.8 686.3 118.3 688.8 121.8 688.8 125.3 688.8 127.75 686.3 130.2 683.85 130.2 680.35 130.2 676.85 127.75 674.4 125.3 671.95 121.8 671.95 118.3 671.95 115.8 674.4 Z"/>
</g>
</g>
</g>

<g id="Layer_1" transform="matrix( 0.35302734375, 0, 0, 0.35302734375, 1.55,217.75) ">
<g transform="matrix( 1, 0, 0, 1, 0,1.35) ">
<clipPath id="Mask_Mask_25">
<rect x="-2" y="-2" width="98.95" height="37.5" fill="#FFFFFF" stroke="none"/>
</clipPath>

<text clip-path="url(#Mask_Mask_25)" writing-mode="lr"><tspan x="0" y="27.15" baseline-shift="0%" font-family="Arial" font-size="30" fill="#E83A4F" xml:space="preserve">Opto®|</tspan></text>
</g>
</g>

<g id="Layer_1" transform="matrix( 0.300872802734375, 0, 0, 0.300872802734375, 36.7,220.4) ">
<g transform="matrix( 1, 0, 0, 1, -0.05,-0.65) ">
<clipPath id="Mask_Mask_26">
<rect x="-2" y="-2" width="68.5" height="19.8" fill="#FFFFFF" stroke="none"/>
</clipPath>

<text clip-path="url(#Mask_Mask_26)" writing-mode="lr"><tspan x="0" y="12.8" baseline-shift="0%" font-family="Arial" font-size="14.15" fill="#E83A4F" xml:space="preserve">READING</tspan></text>
</g>

<g transform="matrix( 1, 0, 0, 1, -0.05,16.3) ">
<clipPath id="Mask_Mask_27">
<rect x="-2" y="-2" width="70.05" height="19.8" fill="#FFFFFF" stroke="none"/>
</clipPath>

<text clip-path="url(#Mask_Mask_27)" writing-mode="lr"><tspan x="0" y="12.8" baseline-shift="0%" font-family="Arial" font-size="14.15" fill="#E83A4F" xml:space="preserve">GLASSES</tspan></text>
</g>
</g>

<g transform="matrix( 0.265380859375, 0, 0, 0.265380859375, 184.25,149.3) ">
<clipPath id="Mask_Mask_28">
<rect x="-2" y="-2" width="391" height="52" fill="#FFFFFF" stroke="none"/>
</clipPath>

<text clip-path="url(#Mask_Mask_28)" writing-mode="lr"><tspan x="0" y="36" baseline-shift="0%" font-family="BlowBrush" font-size="48" fill="#E3E352" xml:space="preserve">WITH CLEAR READING</tspan></text>
</g>

<g id="Layer_1" transform="matrix( 1, 0, 0, 1, 258.35,208.75) ">
<g transform="matrix( 0.35302734375, 0, 0, 0.35302734375, -259.5,-209.5) ">
<g>
<g>
<path fill="#FFF6D3" stroke="none" d="
M 735.1 711.3
L 853 593.45 735.1 475.55 617.2 593.45 735.1 711.3 Z"/>
</g>
</g>
</g>
</g>

<g transform="matrix( 0.35302734375, 0, 0, 0.35302734375, -0.75,-0.75) ">
<g>
<g>
<path fill="#77C0DC" stroke="none" d="
M 678.45 595.9
Q 678.35 595.55 678 595.35
L 666.5 589 657.05 606.2 660.4 608.05 664.65 600.25 669.2 602.75 671.05 601.6 665.55 598.6 668.9 592.45 674.6 595.6 672.4 596.9 675.75 598.75 677.95 597.4 678.35 596.6
Q 678.55 596.25 678.45 595.9 Z"/>
</g>
</g>
</g>

<g transform="matrix( 0.35302734375, 0, 0, 0.35302734375, -0.75,-0.75) ">
<g>
<g>
<path fill="#77C0DC" stroke="none" d="
M 678.9 597.05
L 678.1 598.75 681.55 600.35 682.35 598.6 678.9 597.05
M 681.2 601.15
L 677.75 599.6 671.35 613.7 674.8 615.3 681.2 601.15 Z"/>
</g>
</g>
</g>

<g transform="matrix( 0.35302734375, 0, 0, 0.35302734375, -0.75,-0.75) ">
<g>
<g>
<path fill="#77C0DC" stroke="none" d="
M 689.8 607.5
Q 690.4 608.7 689.95 610
L 686.4 619.75 689.95 621.05 692.8 613.1
Q 693.8 610.35 692.6 607.7 691.35 605.1 688.6 604.1 686.95 603.5 685.25 603.75
L 685.5 603 681.95 601.7 676.7 616.25 681.4 617.95
Q 680.7 616.8 680.8 616.05
L 683.9 607.55
Q 684.4 606.4 685.55 605.9 686.75 605.4 687.95 605.85 689.2 606.25 689.8 607.5 Z"/>
</g>
</g>
</g>

<g transform="matrix( 0.35302734375, 0, 0, 0.35302734375, -0.75,-0.75) ">
<g>
<g>
<path fill="#77C0DC" stroke="none" d="
M 702.75 608.3
Q 699.95 607.65 697.45 609.2 695 610.75 694.3 613.55
L 692.4 621.8 706.1 625 710.55 605.85 706.85 605 705.75 609.8
Q 704.35 608.65 702.75 608.3 Z"/>
</g>
</g>
</g>

<g transform="matrix( 0.35302734375, 0, 0, 0.35302734375, -0.75,-0.75) ">
<g>
<g>
<path fill="#77C0DC" stroke="none" d="
M 717.4 610.8
Q 714.5 610.45 712.2 612.3 709.9 614.1 709.6 617
L 709.45 618.4
Q 709.1 621.3 711.1 623.75
L 708.85 623.5 708.65 625.4 722.65 627 722.85 625.1 720.6 624.85
Q 723.05 623 723.45 619.95
L 723.6 618.6
Q 723.9 615.7 722.1 613.45 720.3 611.15 717.4 610.8 Z"/>
</g>
</g>
</g>

<g>
<g>
<g>
<path fill="#77C0DC" stroke="none" d="
M 260.25 215.15
L 258.9 215.15 258.9 218.85
Q 258.9 219.25 258.65 219.55 258.4 219.85 258 219.95
L 257.55 219.95
Q 257.15 219.9 256.85 219.55 256.6 219.25 256.6 218.85
L 256.6 215.2 255.25 215.2 255.25 218.15
Q 255.25 219.2 256.1 220
L 255.3 220 255.3 220.65 260.25 220.6 260.25 219.95 259.45 219.95
Q 260.25 219.2 260.25 218.15
L 260.25 215.15 Z"/>
</g>
</g>
</g>

<g transform="matrix( 0.35302734375, 0, 0, 0.35302734375, -0.75,-0.75) ">
<g>
<g>
<path fill="#77C0DC" stroke="none" d="
M 753.7 614.05
L 753.5 612.15 744.05 613.3 743.3 606.95 739.55 607.4 741.9 626.9 741.9 626.95 755.85 625.25 755.65 623.35 745.4 624.6 744.3 615.2 753.7 614.05 Z"/>
</g>
</g>
</g>

<g transform="matrix( 0.35302734375, 0, 0, 0.35302734375, -0.75,-0.75) ">
<g>
<g>
<path fill="#77C0DC" stroke="none" d="
M 771.75 621.45
Q 770.4 620.8 770.2 620.25
L 767.5 611.6
Q 767.25 610.4 767.9 609.3 768.5 608.15 769.75 607.75 771.05 607.35 772.25 608 773.45 608.65 773.8 609.9
L 776.85 619.85 780.5 618.75 778 610.7
Q 777.2 607.9 774.6 606.5 772 605.15 769.25 606
L 769.2 606
Q 767.5 606.55 766.35 607.75
L 766.1 606.95 762.45 608.1 767 622.9 771.75 621.45 Z"/>
</g>
</g>
</g>

<g transform="matrix( 0.35302734375, 0, 0, 0.35302734375, -0.75,-0.75) ">
<g>
<g>
<path fill="#77C0DC" stroke="none" d="
M 792.95 605.75
L 792.4 604.45
Q 791.25 601.8 788.5 600.75 785.8 599.7 783.15 600.85
L 783.15 600.8
Q 780.5 602 779.4 604.7 778.35 607.45 779.5 610.1
L 780.1 611.4
Q 781.3 614.15 784.25 615.2
L 782.15 616.1 782.9 617.85 795.8 612.2 795.05 610.45 793 611.35
Q 794.2 608.6 792.95 605.75 Z"/>
</g>
</g>
</g>

<g transform="matrix( 0.35302734375, 0, 0, 0.35302734375, -0.75,-0.75) ">
<g>
<g>
<path fill="#77C0DC" stroke="none" d="
M 807.1 587.25
Q 807.8 587.3 808.45 587.6
L 812.7 599.8 812.3 600.05 802.2 590.4 798 593.1
Q 799.35 593.3 799.85 593.8
L 804.65 601.2
Q 805.35 602.35 805.1 603.65 804.8 604.95 803.7 605.65
L 793.5 596 790.35 598.05 801.9 609.05 805.1 607 805.05 606.95
Q 806.8 605.65 807.5 603.55 808.2 601.5 807.6 599.4
L 811.3 602.95 816.55 599.6 811.3 584.55 807.1 587.25 Z"/>
</g>
</g>
</g>

<g transform="matrix( 1, 0, 0, 1, -32.05,-248) ">
<g>
<path stroke="#D7474E" stroke-width="1" stroke-linejoin="miter" stroke-linecap="butt" stroke-miterlimit="10" fill="none" d="
M 176.45 285.9
L 187.45 285.9 188.35 286.3
Q 189.25 286.95 189.4 288.15
L 189.4 318.85 189.1 319.9
Q 188.5 320.95 187.25 320.95
L 175.95 320.95
Q 175.6 320.9 175.2 320.55 174.45 319.8 174.45 318.3
L 174.45 288.3
Q 174.4 287.7 174.6 287.1 175 285.9 176.45 285.9 Z"/>
</g>
</g>

<g transform="matrix( 1, 0, 0, 1, -31.05,-248) ">
<g>
<g>
<path fill="#D7474E" stroke="none" d="
M 185.3 320.95
L 177.45 320.95 177.45 336.9 185.3 336.9 185.3 320.95 Z"/>
</g>
</g>
</g>

<g transform="matrix( 1, 0, 0, 1, -31.05,-248) ">
<g>
<path stroke="#D7474E" stroke-width="1" stroke-linejoin="miter" stroke-linecap="butt" stroke-miterlimit="10" fill="none" d="
M 175.9 336.9
L 186.9 336.9 187.8 337.3
Q 188.7 337.95 188.85 339.15
L 188.85 369.85 188.55 370.95
Q 188 372 186.75 372
L 175.45 372
Q 175.05 371.95 174.7 371.55 173.9 370.8 173.9 369.35
L 173.9 339.3
Q 173.85 338.7 174.05 338.1 174.45 336.9 175.9 336.9 Z"/>
</g>
</g>

<g transform="matrix( 1, 0, 0, 1, -31.05,-248) ">
<g>
<g>
<path fill="#D7474E" stroke="none" d="
M 185.85 372
L 176.4 372 176.1 408.55
Q 176.1 414.1 170.05 419.3 167 421.9 163.95 423.4
L 198.6 423.4
Q 192.63671875 423.28046875 188.65 415.75 187.4 413.35 186.5 410.5
L 185.85 408.1 185.85 372 Z"/>
</g>
</g>
</g>

<g transform="matrix( 1, 0, 0, 1, -31.05,-248) ">
<g>
<g>
<path fill="#D54C56" stroke="none" d="
M 200.8 422.65
Q 192.3 422.3 182.9 422.15 164.2 421.8 159.9 422.65
L 160.2 425.15
Q 160.85 428.15 162.4 430.8 167.35 439.2 179.75 440.45
L 183.2 440
Q 187.3 439.25 190.65 437.75 201.45 433 200.8 422.65 Z"/>
</g>
</g>
</g>
</g>

<g id="Actions"/>
</svg>
